<svg t="1724853910578" class="icon" viewBox="0 0 1068 1024" version="1.1" xmlns="http://www.w3.org/2000/svg" p-id="16532" width="200" height="200"><path d="M829.05969765 481.18478281a93.89011563 93.89011563 0 0 0-87.42442265 56.953125l-53.37635859-11.45253048c0.34391954-5.12440547 0.34391954-10.28320313 0-15.40760936a150.4649289 150.4649289 0 0 0-91.34510859-137.22401484l24.72783593-60.1859711c5.70906953 0.34391954 11.45253047 0.34391954 17.19599219 0a92.06734062 92.06734062 0 0 0 94.921875-88.45618203 94.23403517 94.23403517 0 0 0-188.08975861 0 89.21280547 89.21280547 0 0 0 49.45567189 79.1703461l-24.76222812 60.18597187A166.21645704 166.21645704 0 0 0 529.19599218 359.74668828a163.36192266 163.36192266 0 0 0-101.73148826 35.83644687L305.99201796 278.06572657c11.55570625-15.13247266 17.84943983-33.63536016 17.91822344-52.65412657A92.06734062 92.06734062 0 0 0 229.67620547 135.85487422a92.06734062 92.06734062 0 0 0-94.57795469 89.55672578 92.06734062 92.06734062 0 0 0 94.57795469 89.90064532 98.1547211 98.1547211 0 0 0 54.82082265-18.26214375l122.5386375 118.23964062a148.67654531 148.67654531 0 0 0-35.83644687 95.98802578c0.03439219 29.30197031 8.90752343 57.8817086 25.45006796 82.05927344l-103.89818281 78.06980312a96.02241875 96.02241875 0 0 0-63.41881796-23.62729296 89.9350375 89.9350375 0 1 0 0 179.11345078 91.72342032 91.72342032 0 0 0 93.89011563-89.55672501 88.83449375 88.83449375 0 0 0-11.48692267-43.33389999l103.86379064-78.10419453a161.91745938 161.91745938 0 0 0 114.66287343 46.56674608 163.36192266 163.36192266 0 0 0 58.05366875-10.38637968l44.40005078 74.87134922a88.83449375 88.83449375 0 0 0-38.31266954 71.63850156 94.23403517 94.23403517 0 1 0 66.99558438-85.63603906l-44.77836327-74.114725a152.25331172 152.25331172 0 0 0 65.20720156-82.05927344l53.37635858 11.45253047v2.88892735a94.23403517 94.23403517 0 1 0 93.85572344-89.55672579v-0.34392031zM529.19599218 633.81640625A123.60478907 123.60478907 0 0 1 403.80281953 512 123.60478907 123.60478907 0 0 1 529.19599218 392.6942086a123.60478907 123.60478907 0 0 1 127.18155548 119.3057914A123.60478907 123.60478907 0 0 1 529.19599218 633.81640625z" fill="#409Eff" p-id="16533"></path></svg>