<svg t="1724896583220" class="icon" viewBox="0 0 1024 1024" version="1.1" xmlns="http://www.w3.org/2000/svg" p-id="1687" width="200" height="200"><path d="M393.2928 667.264c-4.48 0-8.9856-1.0752-13.1072-3.2256l-70.3488-36.992-70.3488 36.992c-9.4976 4.992-20.992 4.1728-29.6448-2.1504a28.19072 28.19072 0 0 1-11.2128-27.5456l13.44-78.336-56.9088-55.4752c-7.68-7.4752-10.4448-18.6624-7.1168-28.8768a28.2112 28.2112 0 0 1 22.7328-19.1744l78.6432-11.4176 35.1744-71.2704c4.736-9.6 14.5408-15.6928 25.2416-15.6928s20.5056 6.0928 25.2416 15.6928l35.1744 71.2704 78.6432 11.4176c10.5984 1.536 19.4304 8.96 22.7328 19.1744 3.3024 10.1888 0.5376 21.376-7.1168 28.8768l-56.9088 55.4752 13.44 78.336c1.8176 10.5728-2.5344 21.248-11.2128 27.5456-4.8896 3.5584-10.7008 5.376-16.5376 5.376z m-83.456-100.1984c4.5056 0 9.0112 1.0752 13.1072 3.2256l32.9472 17.3312-6.2976-36.6848c-1.5616-9.1392 1.4592-18.4576 8.0896-24.9344l26.6496-25.984-36.8384-5.3504a28.1344 28.1344 0 0 1-21.1968-15.4112l-16.4608-33.3824-16.4608 33.3824c-4.096 8.32-12.032 14.08-21.1968 15.4112l-36.8384 5.3504 26.6496 25.984a28.1344 28.1344 0 0 1 8.0896 24.9344l-6.2976 36.6848 32.9472-17.3312c4.1216-2.1248 8.6272-3.2256 13.1072-3.2256zM585.0368 449.0752c-12.672 0-24.5504-7.9104-28.9792-20.5568-5.632-16 2.7904-33.536 18.7904-39.168l235.6224-82.7904c16-5.632 33.536 2.7904 39.168 18.7904 5.632 16-2.7904 33.536-18.7904 39.168l-235.6224 82.7904c-3.3792 1.2032-6.8096 1.7664-10.1888 1.7664zM587.6992 578.3296c-12.672 0-24.5504-7.9104-28.9792-20.5568-5.632-16 2.7904-33.536 18.7904-39.168l235.6224-82.7904c16-5.632 33.536 2.7904 39.168 18.7904 5.632 16-2.7904 33.536-18.7904 39.168l-235.6224 82.7904c-3.3536 1.2032-6.8096 1.7664-10.1888 1.7664zM589.0048 706.304c-12.672 0-24.5504-7.9104-28.9792-20.5568-5.632-16 2.7904-33.536 18.7904-39.168l235.6224-82.7904c16-5.632 33.536 2.7904 39.168 18.7904 5.632 16-2.7904 33.536-18.7904 39.168l-235.6224 82.7904c-3.3536 1.2032-6.8096 1.7664-10.1888 1.7664z" fill="#409Eff" p-id="1688"></path><path d="M505.6512 958.336c-3.1744 0-6.3744-0.4864-9.4464-1.4848L132.2752 839.3984c-76.7488-19.456-92.9024-65.1776-92.9024-100.1984V192.9728c0-58.6752 47.7184-106.3936 106.3936-106.3936 3.2512 0 6.4512 0.512 9.5488 1.5104L506.3424 202.752l354.9184-114.688c3.0464-0.9984 6.2464-1.4848 9.4464-1.4848 58.6752 0 106.3936 47.7184 106.3936 106.3936v546.2528c0 70.2464-62.1056 90.2656-91.9296 99.8912-0.0256 0-0.0768 0.0256-0.1024 0.0256l-370.0736 117.76c-3.072 0.9472-6.2208 1.4336-9.344 1.4336zM141.4912 148.224c-22.784 2.1504-40.6784 21.4016-40.6784 44.7488v546.2528c0 10.1632 0 29.056 47.3344 40.832 0.6912 0.1792 1.3568 0.3584 2.0224 0.5888l355.5328 114.7392 360.6528-114.7648c45.8496-14.7968 49.28-25.984 49.28-41.3952V192.9728c0-23.3472-17.92-42.624-40.7296-44.7488l-359.1936 116.0704c-6.1696 1.9968-12.8256 1.9712-18.9952-0.0256L141.4912 148.224z" fill="#409Eff" p-id="1689"></path></svg>